# Blender 5.2.0 LTS
# www.blender.org
o Cube
v 0.097735 -2.927182 -2.027337
v 0.097735 -3.126150 -2.027337
v 0.097735 -2.927182 2.027337
v 0.097735 -3.126150 2.027337
v -0.097735 -2.927182 -2.027337
v -0.097735 -3.126150 -2.027337
v -0.097735 -2.927182 2.027337
v -0.097735 -3.126150 2.027337
v -0.097735 -3.126150 -1.855439
v 0.097735 -2.927182 -1.855439
v -0.097735 -2.927182 -1.855439
v 0.097735 -3.126150 -1.855439
v -0.097735 -3.126150 1.817968
v 0.097735 -2.927182 1.817968
v -0.097735 -2.927182 1.817968
v 0.097735 -3.126150 1.817968
v 0.097735 3.126151 2.027337
v -0.097735 3.126151 2.027337
v 0.097735 3.126151 1.817968
v -0.097735 3.126151 -1.855439
v -0.097735 3.126151 -2.027337
v 0.097735 3.126151 -2.027337
v 0.097735 3.126151 -1.855439
v -0.097735 3.126151 1.817968
v -0.097735 2.910913 1.817968
v 0.097735 2.910913 1.817968
v 0.097735 2.910913 2.027337
v -0.097735 2.910913 2.027337
v -0.097735 2.896440 -2.027337
v 0.097735 2.896440 -2.027337
v 0.097735 2.896440 -1.855439
v -0.097735 2.896440 -1.855439
vn -0.0000 -0.0000 -1.0000
vn -0.0000 -0.0000 1.0000
vn -0.0000 -1.0000 -0.0000
vn 1.0000 -0.0000 -0.0000
vn -0.0000 -1.0000 0.0039
vn -0.0000 1.0000 -0.0000
vn -1.0000 -0.0000 -0.0000
vt 0.625000 0.500000
vt 0.625000 0.250000
vt 0.375000 0.750000
vt 0.625000 0.750000
vt 0.625000 1.000000
vt 0.375000 1.000000
vt 0.125000 0.737091
vt 0.375000 0.737091
vt 0.125000 0.750000
vt 0.625000 0.737091
vt 0.375000 0.250000
vt 0.375000 0.500000
vt 0.625000 0.510599
vt 0.375000 0.510599
vt 0.125000 0.500000
vt 0.125000 0.510599
vt 0.625000 0.737091
vt 0.875000 0.737091
vt 0.875000 0.510599
vt 0.875000 0.750000
vt 0.875000 0.500000
vt 0.625000 1.000000
vt 0.625000 0.750000
vt 0.625000 0.012909
vt 0.625000 0.000000
vt 0.625000 0.012909
vt 0.625000 0.239401
vt 0.000000 0.000000
s 0
usemtl Material
f 30/1/1 29/2/1 21/2/1 22/1/1
f 4/3/2 3/4/2 7/5/2 8/6/2
f 13/7/3 16/8/3 4/3/3 8/9/3
f 16/8/4 14/10/4 3/4/4 4/3/4
f 6/11/1 5/2/1 1/1/1 2/12/1
f 2/12/4 1/1/4 10/13/4 12/14/4
f 6/15/3 2/12/3 12/14/3 9/16/3
f 26/17/5 25/18/5 32/19/5 31/13/5
f 12/14/4 10/13/4 14/10/4 16/8/4
f 9/16/3 12/14/3 16/8/3 13/7/3
f 10/13/6 11/19/6 15/18/6 14/10/6
f 19/10/6 24/18/6 18/20/6 17/4/6
f 22/1/6 21/21/6 20/19/6 23/13/6
f 19/10/4 26/17/4 31/13/4 23/13/4
f 28/22/2 27/23/2 17/4/2 18/5/2
f 31/13/4 30/1/4 22/1/4 23/13/4
f 25/24/7 28/25/7 18/25/7 24/26/7
f 29/2/7 32/27/7 20/27/7 21/2/7
f 27/23/4 26/17/4 19/10/4 17/4/4
f 3/4/4 14/10/4 26/17/4 27/23/4
f 15/26/7 7/25/7 28/25/7 25/24/7
f 7/5/2 3/4/2 27/23/2 28/22/2
f 14/10/1 15/18/1 25/18/1 26/17/1
f 5/2/7 11/27/7 32/27/7 29/2/7
f 10/13/4 1/1/4 30/1/4 31/13/4
f 11/19/2 10/13/2 31/13/2 32/19/2
f 1/1/1 5/2/1 29/2/1 30/1/1
f 25/24/7 24/26/7 20/27/7 32/27/7
f 24/18/6 19/10/6 23/13/6 20/19/6
f 7/28/7 15/28/7 13/28/7
f 7/28/7 13/28/7 8/28/7
f 5/28/7 6/28/7 11/28/7
f 6/28/7 9/28/7 11/28/7
f 15/28/7 9/28/7 13/28/7
f 9/28/7 15/28/7 11/28/7
